<svg xmlns="http://www.w3.org/2000/svg" viewBox="0 0 64 64"><defs><clipPath id="c" clipPathUnits="userSpaceOnUse"><rect x="95" y="386" width="68" height="111"/></clipPath></defs><rect width="64" height="64" rx="14" fill="#2B2521"/><g transform="translate(32,32) scale(0.42) translate(-129,-441)"><g clip-path="url(#c)"><g transform="translate(0,951) scale(0.1,-0.1)" fill="#FBF8F4"><path d="M1178 5607 c-14 -12 -34 -34 -43 -49 -16 -26 -16 -27 8 -43 89 -58 278 -68 338 -18 16 14 29 28 29 33 0 4 -19 10 -43 13 -46 6 -168 44 -228 70 -34 15 -37 15 -61 -6z"/><path d="M1990 5388 c-132 -37 -178 -69 -245 -167 -42 -61 -72 -127 -97 -210 -5 -19 -8 -72 -6 -117 3 -76 1 -84 -16 -86 -12 -2 -34 -27 -54 -62 -51 -87 -80 -97 -271 -94 l-151 3 42 65 c104 162 200 308 307 470 64 96 118 178 119 183 2 4 -130 7 -293 7 l-296 0 -29 -62 c-17 -35 -30 -71 -30 -80 0 -45 58 -32 93 21 36 55 75 66 174 51 43 -7 86 -17 97 -22 35 -19 12 -78 -98 -256 -158 -255 -187 -299 -238 -365 -77 -98 -93 -92 247 -89 359 4 365 5 382 83 7 30 15 71 18 92 6 38 25 52 25 19 0 -26 53 -102 92 -133 36 -28 146 -71 160 -63 5 3 14 1 21 -4 17 -14 200 2 257 22 191 68 280 192 280 391 0 245 -165 417 -395 414 -33 -1 -76 -5 -95 -11z m70 -68 c0 -5 11 -10 24 -10 53 0 113 -66 167 -182 29 -62 35 -245 10 -343 -12 -48 -11 -43 -11 -54 0 -5 -16 -25 -35 -44 -44 -44 -115 -59 -186 -41 -64 16 -99 38 -135 87 -146 196 -55 590 139 596 15 1 27 -3 27 -9z"/></g></g></g></svg>